#!OML:ASF F:\VICON\USERDATA\INSTALL\Justin_Nancy\Justin_Nancy.ASF
:FULLY-SPECIFIED
:DEGREES
83
root 0.192076 16.474 -13.7163 17.1448 -6.57617 -2.5738
lowerback 20.1645 0.699795 2.30313
upperback 4.56408 1.66632 4.15804
thorax -6.38631 0.778321 2.74997
lowerneck -20.4946 -2.91387 -10.6693
upperneck -1.7877 -1.58371 4.46072
head 2.74354 -0.556898 2.95463
rclavicle 3.18055e-015 -2.46493e-014
rhumerus -22.6515 14.4791 -81.9553
rradius 77.5725
rwrist -19.3494
rhand -21.8624 21.9354
rfingers 7.12502
rthumb 4.54164 -7.9959
lclavicle 3.18055e-015 -2.46493e-014
lhumerus -34.9783 15.1382 75.5697
lradius 56.2166
lwrist 20.0112
lhand -21.1042 12.9706
lfingers 7.12502
lthumb 5.27375 42.885
rfemur -33.9638 1.3504 25.5229
rtibia 59.1122
rfoot -21.3211 -2.92639
rtoes -22.9224
lfemur -31.4803 8.05623 -20.676
ltibia 88.3475
lfoot 18.0015 4.01035
ltoes 10.6416
84
root 0.194513 16.4354 -13.3008 16.9497 -8.16305 -4.0245
lowerback 21.7053 1.3477 3.19511
upperback 4.04764 2.81611 4.3111
thorax -7.76745 1.29919 2.09093
lowerneck -19.8463 -2.81556 -10.5263
upperneck -1.69857 -1.54702 4.19181
head 2.67209 -0.559587 2.85184
rclavicle -3.18055e-015 -7.15625e-015
rhumerus -20.1957 16.3049 -82.0814
rradius 79.4571
rwrist -19.0105
rhand -20.6495 22.2943
rfingers 7.12502
rthumb 5.71276 -7.60872
lclavicle -3.18055e-015 -7.15625e-015
lhumerus -37.2162 17.8485 72.2516
lradius 52.0763
lwrist 21.8225
lhand -21.7471 11.9666
lfingers 7.12502
lthumb 4.65297 41.8955
rfemur -30.7852 3.64525 26.4533
rtibia 57.4454
rfoot -22.2364 -3.71918
rtoes -22.5337
lfemur -35.2758 10.3117 -19.4713
ltibia 92.0634
lfoot 16.1501 3.63337
ltoes 10.1072
85
root 0.18564 16.4139 -12.8994 17.1903 -9.08718 -4.86131
lowerback 22.1459 1.72621 3.72845
upperback 4.01299 3.45495 4.35066
thorax -8.02043 1.58361 1.64304
lowerneck -20.0933 -2.75203 -10.4699
upperneck -1.86694 -1.44795 4.22584
head 2.64849 -0.502326 2.86155
rclavicle -1.74931e-014 -2.38542e-015
rhumerus -16.0765 17.9568 -81.7773
rradius 81.4119
rwrist -19.3782
rhand -19.5477 23.3753
rfingers 7.12502
rthumb 6.77646 -6.49622
lclavicle -1.74931e-014 -2.38542e-015
lhumerus -39.0779 20.0229 69.0323
lradius 49.5125
lwrist 21.8921
lhand -21.5103 9.65959
lfingers 7.12502
lthumb 4.88166 39.5834
rfemur -28.1104 5.11704 27.05
rtibia 55.5966
rfoot -23.0598 -4.72796
rtoes -22.943
lfemur -39.9438 11.7426 -18.7439
ltibia 95.1724
lfoot 14.4634 3.30215
ltoes 8.62695
86
root 0.177088 16.3564 -12.5159 17.407 -9.63721 -5.51473
lowerback 22.1878 1.88047 4.33904
upperback 4.38287 3.75212 4.2278
thorax -7.58718 1.71437 1.08222
lowerneck -20.9248 -2.66002 -10.1485
upperneck -2.28963 -1.31099 4.30573
head 2.62553 -0.414303 2.84672
rclavicle -5.1684e-014 -2.22639e-014
rhumerus -11.129 19.5366 -81.2437
rradius 83.6284
rwrist -20.4601
rhand -19.1147 25.1102
rfingers 7.12502
rthumb 7.19445 -4.74752
lclavicle -5.1684e-014 -2.22639e-014
lhumerus -40.6737 21.1904 66.0905
lradius 48.4333
lwrist 20.5088
lhand -21.3499 7.52974
lfingers 7.12502
lthumb 5.03647 37.4499
rfemur -25.5663 6.01819 27.6017
rtibia 53.6722
rfoot -23.8338 -5.9
rtoes -24.383
lfemur -44.6068 12.5856 -18.08
ltibia 97.9134
lfoot 12.496 3.10685
ltoes 6.32463
87
root 0.164096 16.3025 -12.1096 17.8983 -10.3091 -5.86737
lowerback 22.0268 2.06482 4.42634
upperback 4.41658 3.97723 4.04091
thorax -7.44319 1.82032 0.772925
lowerneck -21.4013 -2.54215 -9.86649
upperneck -2.51244 -1.17765 4.4586
head 2.61561 -0.33248 2.86162
rclavicle -1.98785e-014 -1.74931e-014
rhumerus -6.63516 21.2951 -80.5487
rradius 86.3862
rwrist -21.1536
rhand -18.3907 24.3433
rfingers 7.12502
rthumb 7.8933 -5.4893
lclavicle -1.98785e-014 -1.74931e-014
lhumerus -43.4667 20.6973 63.4972
lradius 49.1112
lwrist 17.9983
lhand -21.6213 6.93915
lfingers 7.12502
lthumb 4.7744 36.8654
rfemur -23.1908 6.859 27.7359
rtibia 51.5585
rfoot -24.6292 -6.93704
rtoes -25.531
lfemur -49.2467 13.2391 -17.8164
ltibia 100.004
lfoot 10.3544 2.74298
ltoes 3.71975
88
root 0.149564 16.2686 -11.6678 18.5696 -11.1512 -5.91361
lowerback 21.6872 2.31575 4.14159
upperback 4.14372 4.20611 3.70001
thorax -7.55459 1.93045 0.508175
lowerneck -21.5228 -2.46756 -9.5748
upperneck -2.5173 -1.15427 4.83256
head 2.63478 -0.302438 2.93589
rclavicle 4.21423e-014 3.49861e-014
rhumerus -2.56795 22.6283 -80.0273
rradius 88.7518
rwrist -20.9103
rhand -17.2278 23.8795
rfingers 7.12502
rthumb 9.01555 -5.90789
lclavicle 4.21423e-014 3.49861e-014
lhumerus -47.0217 18.6767 61.2828
lradius 50.967
lwrist 15.7345
lhand -21.4575 6.205
lfingers 7.12502
lthumb 4.93265 36.1276
rfemur -20.8655 7.66496 27.3819
rtibia 49.2493
rfoot -25.6224 -7.65526
rtoes -26.713
lfemur -53.7271 13.6103 -17.9571
ltibia 101.208
lfoot 8.33559 2.32623
ltoes 1.45062
89
root 0.13872 16.2417 -11.2182 19.1885 -11.841 -5.96656
lowerback 21.4372 2.5261 4.03796
upperback 3.86772 4.42155 3.26711
thorax -7.69325 2.02799 0.043521
lowerneck -21.8544 -2.38433 -9.05877
upperneck -2.39029 -1.15405 5.12079
head 2.72389 -0.288042 2.94538
rclavicle -5.725e-014 -1.74931e-014
rhumerus 1.20455 23.4198 -79.6839
rradius 91.2031
rwrist -20.1529
rhand -16.3489 23.5933
rfingers 7.12502
rthumb 9.8636 -6.15563
lclavicle -5.725e-014 -1.74931e-014
lhumerus -50.164 15.7779 59.7504
lradius 53.4085
lwrist 14.8027
lhand -20.7525 7.56243
lfingers 7.12502
lthumb 5.61329 37.4681
rfemur -18.3688 8.25173 27.0033
rtibia 46.7059
rfoot -26.5944 -8.06599
rtoes -29.1324
lfemur -58.048 13.6439 -17.9831
ltibia 101.754
lfoot 6.71889 2.02208
ltoes -1.47863
90
root 0.130779 16.2227 -10.7627 19.8352 -12.1494 -5.81678
lowerback 21.1838 2.65165 4.02431
upperback 3.54745 4.54614 2.78287
thorax -7.86606 2.07809 -0.502456
lowerneck -22.1324 -2.38879 -8.62427
upperneck -2.51203 -1.25491 5.42841
head 2.73576 -0.31934 2.96558
rclavicle 3.26007e-014 3.26007e-014
rhumerus 4.10881 23.8466 -79.3751
rradius 94.331
rwrist -19.4464
rhand -16.3099 23.8066
rfingers 7.12502
rthumb 9.90113 -5.94053
lclavicle 3.26007e-014 3.26007e-014
lhumerus -52.953 12.6535 58.8881
lradius 56.4071
lwrist 15.4498
lhand -19.7917 10.8594
lfingers 7.12502
lthumb 6.54086 40.7384
rfemur -15.8785 8.4127 26.5017
rtibia 43.9699
rfoot -26.5575 -8.38626
rtoes -31.051
lfemur -62.3137 13.0614 -17.9987
ltibia 101.668
lfoot 4.52354 2.07286
ltoes -9.10302
91
root 0.127545 16.202 -10.2925 20.6032 -12.073 -5.65593
lowerback 20.5599 2.73119 4.29102
upperback 3.27503 4.65105 2.32434
thorax -7.76539 2.11972 -1.15006
lowerneck -22.0115 -2.53616 -8.33603
upperneck -3.12487 -1.53073 5.72719
head 2.55296 -0.439172 2.99167
rclavicle 4.37326e-015 -1.51076e-014
rhumerus 6.1506 23.8168 -78.8935
rradius 98.0294
rwrist -19.4683
rhand -16.6133 24.3183
rfingers 7.12502
rthumb 9.6085 -5.44256
lclavicle 4.37326e-015 -1.51076e-014
lhumerus -55.4342 9.44164 58.5501
lradius 59.553
lwrist 17.3955
lhand -19.271 12.4778
lfingers 7.12502
lthumb 7.04354 42.3406
rfemur -13.5721 8.35838 26.0238
rtibia 41.1077
rfoot -25.4595 -8.23517
rtoes -31.2015
lfemur -66.4238 12.0871 -17.793
ltibia 100.986
lfoot 2.0013 2.20321
ltoes -17.8729
92
root 0.125972 16.1981 -9.79876 21.4136 -11.9744 -5.58808
lowerback 19.8545 2.9528 4.62205
upperback 2.86138 4.96591 1.96141
thorax -7.76214 2.25683 -1.77871
lowerneck -21.7013 -2.90268 -8.26734
upperneck -3.43149 -2.05878 5.9852
head 2.45661 -0.692446 3.01849
rclavicle 3.1408e-014 -3.02153e-014
rhumerus 7.2864 23.3735 -78.2265
rradius 101.904
rwrist -20.6318
rhand -16.4789 24.8904
rfingers 7.12502
rthumb 9.73813 -4.86441
lclavicle 3.1408e-014 -3.02153e-014
lhumerus -57.8688 6.08423 58.6646
lradius 62.6586
lwrist 20.1329
lhand -19.1445 11.9943
lfingers 7.12502
lthumb 7.16566 41.853
rfemur -11.24 8.36382 25.5677
rtibia 38.0947
rfoot -24.0459 -7.28638
rtoes -30.6805
lfemur -69.9306 11.1783 -17.3944
ltibia 99.6497
lfoot 0.662186 1.90298
ltoes -19.0947
93
root 0.127475 16.2083 -9.28323 21.9895 -11.6814 -5.34021
lowerback 19.2938 3.19373 4.89429
upperback 2.39999 5.3066 1.63252
thorax -7.88595 2.40185 -2.34885
lowerneck -21.3623 -3.46577 -8.29756
upperneck -3.40487 -2.82869 6.12519
head 2.47412 -1.07455 3.00258
rclavicle 1.86858e-014 1.35174e-014
rhumerus 7.86459 22.8977 -77.2176
rradius 105.618
rwrist -22.3849
rhand -16.8539 25.9893
rfingers 7.12502
rthumb 9.37634 -3.78215
lclavicle 1.86858e-014 1.35174e-014
lhumerus -60.1366 2.82808 59.117
lradius 65.4335
lwrist 22.3311
lhand -19.2534 10.831
lfingers 7.12502
lthumb 7.06051 40.6933
rfemur -8.65365 8.22579 24.9859
rtibia 35.0651
rfoot -22.5369 -5.73139
rtoes -30.111
lfemur -72.7626 10.0536 -17.0418
ltibia 97.8121
lfoot 0.21617 1.15134
ltoes -15.5672
